<svg width="50" height="50" viewBox="0 0 50 50" fill="none" xmlns="http://www.w3.org/2000/svg">
<circle cx="25" cy="25" r="25" fill="#050737"/>
<path d="M13.18 32.1C11.2067 32.1 9.75333 31.7533 8.82 31.06C7.9 30.3533 7.44 29.2733 7.44 27.82C7.44 27.4733 7.48 27.12 7.56 26.76H10.76C10.7333 26.9333 10.7133 27.1 10.7 27.26C10.6867 27.42 10.68 27.5533 10.68 27.66C10.68 28.3933 10.9533 28.8867 11.5 29.14C12.0467 29.38 12.7867 29.5 13.72 29.5H14.98C16.1133 29.5 16.9133 29.32 17.38 28.96C17.86 28.5867 18.1 27.8933 18.1 26.88V17.7H21.3V26.88C21.3 28.0533 21.12 29.0267 20.76 29.8C20.4 30.5733 19.8 31.1533 18.96 31.54C18.12 31.9133 16.9733 32.1 15.52 32.1H13.18ZM24.1031 32V17.7H26.4631L32.8631 17.68C35.4498 17.68 37.4565 18.2867 38.8831 19.5C40.3098 20.7133 41.0231 22.4933 41.0231 24.84C41.0231 27.1867 40.3098 28.9667 38.8831 30.18C37.4565 31.3933 35.4498 32 32.8631 32H24.1031ZM32.6431 20.28H27.3031V29.4H32.6431C34.3231 29.4 35.5965 29.0333 36.4631 28.3C37.3298 27.5667 37.7631 26.4133 37.7631 24.84C37.7631 23.2533 37.3298 22.1 36.4631 21.38C35.5965 20.6467 34.3231 20.28 32.6431 20.28Z" fill="white"/>
</svg>
